<svg width="120" height="22" viewBox="0 0 120 22" fill="none" xmlns="http://www.w3.org/2000/svg">
<path d="M7.11004 16.7613L4.72443 11.3981L2.94692 13.5527V16.7613H0V1.30419L2.94692 0.156616V9.68848H2.9937C3.05607 9.62603 3.14183 9.51674 3.25097 9.3606C3.37571 9.20447 3.50045 9.04053 3.62518 8.86879C3.76551 8.69704 3.88246 8.54091 3.97601 8.40039C4.08515 8.25987 4.15532 8.174 4.1865 8.14277L6.40839 5.35581H9.91663L6.75921 9.07957L10.4078 16.7613H7.11004Z" fill="#333333"/>
<path d="M12.2505 5.3324H15.1975V16.7613H12.2505V5.3324ZM11.9699 2.19414C11.9699 1.71013 12.1336 1.29638 12.461 0.952891C12.8041 0.6094 13.225 0.437655 13.724 0.437655C14.1918 0.437655 14.5972 0.6094 14.9402 0.952891C15.2832 1.29638 15.4547 1.71013 15.4547 2.19414C15.4547 2.66254 15.2832 3.06848 14.9402 3.41197C14.5972 3.75546 14.1918 3.92721 13.724 3.92721C13.225 3.92721 12.8041 3.75546 12.461 3.41197C12.1336 3.06848 11.9699 2.66254 11.9699 2.19414Z" fill="#333333"/>
<path d="M28.0968 16.7613H25.1265V10.1803C25.1265 9.36841 24.9706 8.74388 24.6587 8.30671C24.3469 7.86954 23.8402 7.65096 23.1385 7.65096C22.6084 7.65096 22.1562 7.79928 21.782 8.09593C21.4234 8.39258 21.1817 8.79072 21.0569 9.29034C21.0258 9.43086 20.9946 9.5948 20.9634 9.78216C20.9322 9.9539 20.9166 10.1335 20.9166 10.3208V16.7613H17.9697V5.3324H20.9166V6.55023H21.0102C21.4156 6.08183 21.8989 5.72273 22.4602 5.47291C23.0372 5.2231 23.5907 5.0982 24.1208 5.0982C25.5241 5.0982 26.5376 5.51195 27.1613 6.33945C27.785 7.15133 28.0968 8.25207 28.0968 9.64164V16.7613Z" fill="#333333"/>
<path d="M40.5664 15.7776C40.5664 16.4958 40.4651 17.175 40.2624 17.8152C40.0753 18.4553 39.7634 19.0408 39.3269 19.5716C38.8903 20.1025 38.3212 20.5631 37.6195 20.9534C36.9335 21.3437 36.0915 21.6404 35.0936 21.8434L34.1814 19.4545C34.9766 19.2203 35.6003 18.9627 36.0525 18.6817C36.5203 18.4007 36.8711 18.1118 37.105 17.8152C37.3389 17.5341 37.487 17.2531 37.5493 16.972C37.6117 16.7066 37.6429 16.4568 37.6429 16.2226V15.6371H37.5493C37.0504 16.0899 36.567 16.4022 36.0993 16.5739C35.6315 16.7457 35.1014 16.8315 34.5089 16.8315C33.9475 16.8315 33.4018 16.73 32.8717 16.5271C32.3416 16.3085 31.8738 15.9728 31.4684 15.52C31.0786 15.0672 30.7589 14.4739 30.5095 13.7401C30.2756 13.0063 30.1586 12.1241 30.1586 11.0937C30.1586 10.0944 30.2756 9.22008 30.5095 8.47065C30.7589 7.72122 31.0864 7.1045 31.4918 6.62049C31.9128 6.12086 32.3883 5.75395 32.9185 5.51975C33.4642 5.26994 34.0411 5.14504 34.6492 5.14504C35.7874 5.14504 36.7463 5.53537 37.526 6.31603C37.5415 6.31603 37.5493 6.31603 37.5493 6.31603C37.5649 6.30041 37.5805 6.29261 37.5961 6.29261V5.3324H40.5664V15.7776ZM37.5961 8.79853C37.3311 8.48626 37.0036 8.20523 36.6138 7.95541C36.2396 7.7056 35.8264 7.5807 35.3742 7.5807C34.7194 7.5807 34.1814 7.87735 33.7604 8.47065C33.355 9.04834 33.1523 9.88365 33.1523 10.9766C33.1523 12.21 33.3473 13.0922 33.7371 13.623C34.1269 14.1382 34.6882 14.3959 35.421 14.3959C35.8576 14.3959 36.263 14.2788 36.6372 14.0446C37.0114 13.7948 37.3311 13.5215 37.5961 13.2249V8.79853Z" fill="#333333"/>
<path d="M44.6826 17.0189C44.1836 17.0189 43.7627 16.8471 43.4196 16.5036C43.0922 16.1602 42.9285 15.7386 42.9285 15.239C42.9285 14.6769 43.1156 14.2397 43.4898 13.9275C43.864 13.6152 44.2694 13.4591 44.706 13.4591C45.2049 13.4591 45.6103 13.6308 45.9222 13.9743C46.2496 14.3178 46.4133 14.7394 46.4133 15.239C46.4133 15.7386 46.2418 16.1602 45.8988 16.5036C45.5713 16.8471 45.1659 17.0189 44.6826 17.0189Z" fill="#333333"/>
<path d="M55.4374 16.7613V15.8245L55.3906 15.8011C54.8916 16.2694 54.3459 16.5895 53.7534 16.7613C53.1765 16.933 52.6698 17.0189 52.2332 17.0189C51.7342 17.0189 51.2509 16.9486 50.7831 16.8081C50.3153 16.6676 49.9021 16.449 49.5435 16.1523C49.1849 15.8557 48.8964 15.4732 48.6782 15.0048C48.4599 14.5208 48.3507 13.9431 48.3507 13.2717C48.3507 12.6628 48.4677 12.1241 48.7015 11.6557C48.9354 11.1873 49.2551 10.797 49.6605 10.4848C50.0659 10.1725 50.5258 9.93829 51.0404 9.78216C51.5705 9.61041 52.1318 9.52454 52.7243 9.52454C53.1921 9.52454 53.6365 9.56357 54.0575 9.64164C54.494 9.70409 54.954 9.84461 55.4374 10.0632V9.29034C55.4374 8.07251 54.7357 7.4636 53.3324 7.4636C52.8023 7.4636 52.2877 7.52605 51.7888 7.65096C51.2898 7.77586 50.7831 7.96322 50.2686 8.21303L49.45 6.03499C50.0737 5.72273 50.7441 5.48853 51.4614 5.3324C52.1786 5.16065 52.9348 5.07478 53.73 5.07478C55.2425 5.07478 56.3885 5.41046 57.1681 6.08183C57.9477 6.7532 58.3375 7.76025 58.3375 9.10299V16.7613H55.4374ZM55.4374 12.171C55.1411 11.9992 54.8137 11.8587 54.4551 11.7494C54.112 11.6245 53.7066 11.5621 53.2389 11.5621C52.6931 11.5621 52.2332 11.7026 51.859 11.9836C51.5003 12.249 51.321 12.6394 51.321 13.1546C51.321 13.6542 51.4769 14.0446 51.7888 14.3256C52.1162 14.591 52.5684 14.7237 53.1453 14.7237C53.5351 14.7237 53.9405 14.6223 54.3615 14.4193C54.7825 14.2163 55.1411 13.9665 55.4374 13.6698V12.171Z" fill="#333333"/>
<path d="M70.8426 16.7613H67.8723V10.1803C67.8723 9.36841 67.7163 8.74388 67.4045 8.30671C67.0926 7.86954 66.5859 7.65096 65.8843 7.65096C65.3541 7.65096 64.9019 7.79928 64.5277 8.09593C64.1691 8.39258 63.9274 8.79072 63.8027 9.29034C63.7715 9.43086 63.7403 9.5948 63.7091 9.78216C63.678 9.9539 63.6624 10.1335 63.6624 10.3208V16.7613H60.7154V5.3324H63.6624V6.55023H63.7559C64.1613 6.08183 64.6447 5.72273 65.206 5.47291C65.7829 5.2231 66.3364 5.0982 66.8666 5.0982C68.2699 5.0982 69.2833 5.51195 69.907 6.33945C70.5307 7.15133 70.8426 8.25207 70.8426 9.64164V16.7613Z" fill="#333333"/>
<path d="M82.0726 13.5293C82.0726 14.0914 81.9557 14.591 81.7218 15.0282C81.4879 15.4654 81.1605 15.8323 80.7395 16.1289C80.3185 16.41 79.8195 16.6286 79.2426 16.7847C78.6657 16.9408 78.0342 17.0189 77.3482 17.0189C76.553 17.0189 75.7578 16.9096 74.9626 16.691C74.1674 16.4568 73.4267 16.1445 72.7407 15.7542L73.7464 13.6464C74.3857 14.0055 75.0093 14.271 75.6174 14.4427C76.2411 14.6144 76.8024 14.7003 77.3014 14.7003C77.7692 14.7003 78.1824 14.6223 78.541 14.4661C78.9152 14.2944 79.1023 14.0133 79.1023 13.623C79.1023 13.1858 78.9152 12.8658 78.541 12.6628C78.1824 12.4598 77.6756 12.2569 77.0207 12.0539C75.7266 11.6636 74.7521 11.2108 74.0972 10.6955C73.4423 10.1647 73.1149 9.42306 73.1149 8.47065C73.1149 7.45579 73.5125 6.6439 74.3077 6.03499C75.1029 5.41046 76.2021 5.0982 77.6054 5.0982C79.1023 5.0982 80.49 5.43388 81.7686 6.10525L80.833 8.25987C80.1782 7.90077 79.5779 7.67438 79.0321 7.5807C78.4864 7.4714 78.0342 7.41676 77.6756 7.41676C77.1923 7.41676 76.8024 7.51824 76.5062 7.72122C76.2099 7.90858 76.0618 8.12716 76.0618 8.37697C76.0618 8.65801 76.1866 8.90001 76.436 9.10299C76.7011 9.30596 77.1689 9.50112 77.8393 9.68848C78.4942 9.87584 79.0789 10.0788 79.5934 10.2974C80.1236 10.5004 80.568 10.7502 80.9266 11.0468C81.3008 11.3435 81.5815 11.6948 81.7686 12.1007C81.9713 12.5067 82.0726 12.9829 82.0726 13.5293Z" fill="#333333"/>
<path d="M90.951 9.17325L90.4599 11.2342L89.0332 16.7613H86.1564L83.0224 5.3324H86.0161L87.1153 10.1803L87.6767 13.0609H87.7702L88.4485 10.1803L89.6647 5.3324H92.4245L93.7108 10.4145L94.2955 13.1078H94.3657L94.927 10.3208L96.073 5.3324H99.0667L95.8392 16.7613H92.9156L91.5123 11.3044L90.9978 9.17325H90.951Z" fill="#333333"/>
<path d="M110.143 11.9368H102.753C102.831 12.7955 103.103 13.4513 103.571 13.904C104.039 14.3568 104.647 14.5832 105.395 14.5832C105.848 14.5832 106.315 14.4973 106.799 14.3256C107.282 14.1539 107.719 13.9353 108.109 13.6698L109.395 15.5669C108.724 16.0977 108.038 16.4724 107.337 16.691C106.651 16.894 105.91 16.9955 105.115 16.9955C104.288 16.9955 103.54 16.8627 102.87 16.5973C102.215 16.3163 101.653 15.9181 101.186 15.4029C100.733 14.8877 100.383 14.2632 100.133 13.5293C99.8836 12.7955 99.7589 11.968 99.7589 11.0468C99.7589 10.1413 99.8836 9.32157 100.133 8.58775C100.398 7.85393 100.765 7.2294 101.232 6.71416C101.7 6.19893 102.261 5.80079 102.916 5.51975C103.571 5.23872 104.296 5.0982 105.091 5.0982C105.949 5.0982 106.69 5.24652 107.313 5.54317C107.953 5.82421 108.483 6.22235 108.904 6.73758C109.325 7.25282 109.637 7.87735 109.839 8.61117C110.042 9.32938 110.143 10.1257 110.143 11V11.9368ZM107.196 10.0164C107.181 9.29815 107.001 8.69704 106.658 8.21303C106.331 7.71341 105.77 7.4636 104.974 7.4636C104.413 7.4636 103.914 7.68999 103.478 8.14277C103.057 8.59556 102.815 9.22008 102.753 10.0164H107.196Z" fill="#333333"/>
<path d="M120 5.42607C119.922 5.89447 119.828 6.37067 119.719 6.85468C119.626 7.32308 119.54 7.79148 119.462 8.25987C118.792 8.13497 118.215 8.07251 117.731 8.07251C116.936 8.07251 116.328 8.25987 115.907 8.63459C115.486 9.00931 115.276 9.68067 115.276 10.6487V16.7613H112.305V5.3324H115.276V6.761H115.322C115.681 6.18332 116.125 5.76176 116.655 5.49633C117.186 5.23091 117.747 5.0982 118.339 5.0982C118.885 5.0982 119.439 5.20749 120 5.42607Z" fill="#333333"/>
</svg>
