<svg width="25" height="20" viewBox="0 0 25 20" fill="none" xmlns="http://www.w3.org/2000/svg">
<path d="M13.5731 16.1236C14.9265 15.1498 15.8933 14.2509 16.4733 13.427C17.0147 12.6404 17.4787 11.7416 17.8654 10.7303C16.512 10.6554 15.4099 10.1685 14.5592 9.26967C13.7084 8.37079 13.2831 7.15356 13.2831 5.61798C13.2831 3.93258 13.8438 2.56554 14.9652 1.51685C16.048 0.50562 17.3627 1.23968e-06 18.9095 1.3749e-06C20.7657 1.53717e-06 22.2544 0.617979 23.3759 1.85393C24.4586 3.08989 25 4.77528 25 6.91011C25 9.83146 24.2073 12.3783 22.6218 14.5506C20.9977 16.7603 18.9675 18.5768 16.5313 20L13.5731 16.1236ZM0.290022 16.1236C1.64346 15.1498 2.61021 14.2509 3.19025 13.427C3.73163 12.6404 4.19567 11.7416 4.58237 10.7303C3.22892 10.6554 2.12684 10.1685 1.2761 9.26966C0.425366 8.37079 -2.69162e-06 7.15356 -2.55738e-06 5.61798C-2.41004e-06 3.93258 0.560711 2.56554 1.68213 1.51685C2.76489 0.505619 4.07966 7.84361e-08 5.62645 2.13661e-07C7.4826 3.7593e-07 8.97139 0.617978 10.0928 1.85393C11.1756 3.08989 11.7169 4.77528 11.7169 6.91011C11.7169 9.83146 10.9242 12.3783 9.33875 14.5506C7.71462 16.7603 5.68445 18.5768 3.24826 20L0.290022 16.1236Z" fill="#7000FF"/>
</svg>
