<svg width="32" height="32" viewBox="0 0 32 32" fill="none" xmlns="http://www.w3.org/2000/svg">
<path d="M0 14.336C0 9.31793 0 6.80889 0.976582 4.89224C1.83561 3.20631 3.20631 1.83561 4.89224 0.976582C6.80889 0 9.31793 0 14.336 0H17.664C22.6821 0 25.1911 0 27.1078 0.976582C28.7937 1.83561 30.1644 3.20631 31.0234 4.89224C32 6.80889 32 9.31793 32 14.336V17.664C32 22.6821 32 25.1911 31.0234 27.1078C30.1644 28.7937 28.7937 30.1644 27.1078 31.0234C25.1911 32 22.6821 32 17.664 32H14.336C9.31793 32 6.80889 32 4.89224 31.0234C3.20631 30.1644 1.83561 28.7937 0.976582 27.1078C0 25.1911 0 22.6821 0 17.664V14.336Z" fill="#12D276"/>
<path d="M25.0483 10.0328V16.2905C25.0483 18.6801 25.0483 19.8749 24.5832 20.7875C24.1742 21.5904 23.5215 22.2431 22.7186 22.6521C21.8059 23.1172 20.6112 23.1172 18.2216 23.1172H13.7784C11.3888 23.1172 10.1941 23.1172 9.28136 22.6521C8.47854 22.2431 7.82582 21.5904 7.41676 20.7875C6.95172 19.8749 6.95172 18.6801 6.95172 16.2905V10.0328C6.95172 9.6774 6.95172 9.49971 7.01956 9.42381C7.07832 9.35806 7.16579 9.32561 7.25321 9.33712C7.35414 9.35042 7.47003 9.48512 7.70182 9.75452L11.1524 13.765C11.2639 13.8946 11.3196 13.9594 11.3859 13.9831C11.4441 14.004 11.5077 14.004 11.5658 13.9831C11.6321 13.9594 11.6878 13.8946 11.7993 13.765L15.6766 9.25861C15.788 9.12906 15.8438 9.06429 15.91 9.04054C15.9682 9.01969 16.0318 9.01969 16.09 9.04054C16.1562 9.06429 16.212 9.12906 16.3234 9.25861L20.2007 13.765C20.3122 13.8946 20.3679 13.9594 20.4342 13.9831C20.4923 14.004 20.5559 14.004 20.6141 13.9831C20.6804 13.9594 20.7361 13.8946 20.8476 13.765L24.2982 9.75452L24.2982 9.7545C24.53 9.48511 24.6459 9.35042 24.7468 9.33712C24.8342 9.32561 24.9217 9.35806 24.9804 9.42381C25.0483 9.49971 25.0483 9.6774 25.0483 10.0328Z" fill="white"/>
</svg>
